# xmcd
#
# Track frame offsets: 
#        150
#        31031
#        53437
#        97666
#        120157
#        142114
#        154953
#        182799
#        198571
#
# Disc length: 3010 seconds
#
# Revision: 0
# Processed by: cddbd v1.5.2PL0 Copyright (c) Steve Scherf et al.
# Submitted via: ExactAudioCopyFreeDBPlugin 1.0
#
DISCID=6a0bc009
DTITLE=Waybacks, The - 2008 Hillside Album Hour - Led Zeppelin II
DYEAR=2008
DGENRE=Bluegrass
TTITLE0=Whole Lotta Love
TTITLE1=What Is and What Should Never Be
TTITLE2=The Lemon Song
TTITLE3=Thank You
TTITLE4=Heartbreaker
TTITLE5=Living Loving Maid (She's Just a Woman)
TTITLE6=Ramble On
TTITLE7=Moby Dick
TTITLE8=Bring It on Home
EXTD=
EXTT0=
EXTT1=
EXTT2=
EXTT3=
EXTT4=
EXTT5=
EXTT6=
EXTT7=
EXTT8=
PLAYORDER=
